<svg width="44" height="51" viewBox="0 0 44 51" fill="none" xmlns="http://www.w3.org/2000/svg">
  <g clip-path="url(#clip0_1530_668)">
    <path d="M0 12.723L10.7218 18.9473V31.8566L0 25.6225V12.723Z" fill="#62AEFE" />
    <path d="M0 25.6226L10.7218 31.8567V44.7659L0 38.5318V25.6226Z" fill="#5C65A5" />
    <path d="M10.7217 18.9474L21.4337 25.1815V38.0908L10.7217 31.8567V18.9474Z" fill="#564788" />
    <path d="M10.7217 31.8566L21.4337 38.0907V50.9999L10.7217 44.7658V31.8566Z" fill="#51328E" />
    <path d="M42.877 25.152L32.1553 31.3861V44.2954L42.877 38.0613V25.152Z" fill="#2F2B48" />
    <path d="M21.4336 38.0907V51L32.1554 44.2954L21.4336 38.0907Z" fill="#48297B" />
    <path d="M32.1554 44.2954L21.4336 38.0613V25.152L32.1554 31.3861V44.2954Z" fill="#494661" />
    <path d="M0 12.7133L11.072 6.36157L21.7159 12.5467L10.7218 18.9474L0 12.7133Z" fill="#BF9AD2" />
    <path d="M10.7217 18.918L21.6789 12.5352L32.5539 18.7669L21.4337 25.1521L10.7217 18.918Z" fill="#D0B5E0" />
    <path d="M11.0723 6.36152L22.1443 0L32.7674 6.23174L21.6792 12.5351L11.0723 6.36152Z" fill="#A676BF" />
    <path d="M21.6787 12.5351L32.7669 6.23169L43.4997 12.3897L32.5056 18.7905L21.6787 12.5351Z" fill="#6649A9" />
    <path d="M32.1554 31.3861L21.4336 25.1521L32.5056 18.7905L42.8771 25.1521L32.1554 31.3861Z" fill="#5C5A6F" />
  </g>
  <defs>
    <clipPath id="clip0_1530_668">
      <rect width="43.5" height="51" fill="white" />
    </clipPath>
  </defs>
</svg>