<svg width="36" height="33" viewBox="0 0 36 33" fill="none" xmlns="http://www.w3.org/2000/svg">
  <path
    d="M35.1062 4.14276C35.1166 3.44054 34.9483 2.74724 34.6171 2.12867C34.2859 1.51011 33.8028 0.986744 33.2137 0.608164C32.6048 0.241361 31.9082 0.0476074 31.1982 0.0476074C30.4882 0.0476074 29.7915 0.241361 29.1826 0.608164L20.8934 5.24491C20.819 5.29082 20.7576 5.35507 20.715 5.43158C20.6724 5.5081 20.65 5.59434 20.65 5.682C20.65 5.76965 20.6724 5.85584 20.715 5.93235C20.7576 6.00886 20.819 6.07312 20.8934 6.11903L34.3114 13.7202C34.3868 13.764 34.4725 13.7869 34.5597 13.7865C34.6469 13.7861 34.7324 13.7624 34.8074 13.718C34.8825 13.6735 34.9445 13.6098 34.987 13.5334C35.0295 13.457 35.0511 13.3707 35.0494 13.2832L35.1062 4.14276Z"
    fill="url(#paint0_linear_120_11)" />
  <path
    d="M0.0756882 28.8846C0.0583503 29.5906 0.223599 30.2891 0.555287 30.9119C0.886976 31.5347 1.37378 32.0606 1.96821 32.4381C2.57266 32.7976 3.26226 32.9874 3.96481 32.9874C4.66735 32.9874 5.35698 32.7976 5.96143 32.4381L14.1561 27.7444C14.2353 27.7024 14.3016 27.6395 14.3479 27.5625C14.3942 27.4855 14.4186 27.3972 14.4186 27.3073C14.4186 27.2173 14.3942 27.1291 14.3479 27.0521C14.3016 26.9751 14.2353 26.9122 14.1561 26.8702L0.756997 19.269C0.680119 19.2266 0.593663 19.2047 0.505936 19.2056C0.418208 19.2064 0.332171 19.2299 0.256115 19.2738C0.18006 19.3178 0.116532 19.3806 0.0716742 19.4563C0.0268165 19.532 0.00214419 19.618 0 19.7061L0.0756882 28.8846Z"
    fill="url(#paint1_linear_120_11)" />
  <path
    d="M35.1062 28.9986C35.108 29.6982 34.9267 30.3859 34.5804 30.9929C34.2341 31.5999 33.735 32.1049 33.1331 32.4571C32.5312 32.8094 31.8476 32.9965 31.1509 32.9999C30.4542 33.0032 29.7689 32.8226 29.1637 32.4762L1.1354 16.4566C0.799 16.2684 0.519453 15.9926 0.326252 15.6581C0.13305 15.3236 0.0333594 14.943 0.0377358 14.5563V4.00967C0.0427125 2.94779 0.465025 1.93079 1.21282 1.17992C1.96062 0.429045 2.97342 0.00499717 4.03096 0C4.69551 0.0201893 5.34512 0.202826 5.92348 0.532082L34.0275 16.6467C34.3577 16.8403 34.6313 17.1179 34.8206 17.4515C35.01 17.7852 35.1085 18.163 35.1062 18.547V28.9986Z"
    fill="url(#paint2_linear_120_11)" />
  <defs>
    <linearGradient id="paint0_linear_120_11" x1="27.3469" y1="2.75551" x2="31.2939" y2="15.6875"
      gradientUnits="userSpaceOnUse">
      <stop stop-color="#1BB3CC" />
      <stop offset="0.99" stop-color="#A626CC" />
    </linearGradient>
    <linearGradient id="paint1_linear_120_11" x1="0.946261" y1="19.9531" x2="7.25111" y2="32.9671"
      gradientUnits="userSpaceOnUse">
      <stop stop-color="#1CB1CC" />
      <stop offset="1" stop-color="#8B41CC" />
    </linearGradient>
    <linearGradient id="paint2_linear_120_11" x1="1.89246" y1="1.9003" x2="33.251" y2="34.0769"
      gradientUnits="userSpaceOnUse">
      <stop stop-color="#1BB3CC" />
      <stop offset="1" stop-color="#824ACC" />
    </linearGradient>
  </defs>
</svg>
