<svg xmlns="http://www.w3.org/2000/svg" xmlns:xlink="http://www.w3.org/1999/xlink" fill="none" version="1.1" width="24"
  height="24" viewBox="0 0 24 24">
  <g style="mix-blend-mode:passthrough">
    <g style="mix-blend-mode:passthrough">
      <g>
        <g>
          <path
            d="M18.789,6.33999C17.4296,5.713997,15.9762,5.259052,14.4565,5C14.2699,5.332095,14.0519,5.7787690000000005,13.9016,6.1341C12.2862,5.894991,10.68569,5.894991,9.09998,6.1341C8.94969,5.7787690000000005,8.72674,5.332095,8.53844,5C7.01721,5.259052,5.56203,5.715673,4.2026699999999995,6.34331C1.460812,10.42136,0.7175400000000001,14.39812,1.089177,18.3184C2.9077200000000003,19.655,4.67011,20.467,6.40275,20.9983C6.83055,20.4189,7.2121,19.8029,7.54078,19.1536C6.91478,18.9195,6.31521,18.630499999999998,5.74869,18.2952C5.89899,18.1856,6.046,18.070999999999998,6.18804,17.9531C9.64339,19.543799999999997,13.3978,19.543799999999997,16.8119,17.9531C16.9556,18.070999999999998,17.1026,18.1856,17.2513,18.2952C16.6831,18.632199999999997,16.081899999999997,18.9211,15.4558,19.1553C15.7846,19.8029,16.1645,20.4205,16.5938,21C18.3282,20.4687,20.0922,19.6567,21.9108,18.3184C22.3468,13.77377,21.1658,9.833549999999999,18.789,6.33999ZM8.01155,15.9075C6.97426,15.9075,6.12361,14.95437,6.12361,13.79367C6.12361,12.633040000000001,6.95609,11.67831,8.01155,11.67831C9.06701,11.67831,9.91758,12.63137,9.89945,13.79367C9.90106,14.95437,9.06701,15.9075,8.01155,15.9075ZM14.9884,15.9075C13.9511,15.9075,13.1005,14.95437,13.1005,13.79367C13.1005,12.633040000000001,13.9329,11.67831,14.9884,11.67831C16.043799999999997,11.67831,16.8945,12.63137,16.8764,13.79367C16.8764,14.95437,16.043799999999997,15.9075,14.9884,15.9075Z"
            fill="#FFFFFF" fill-opacity="1" />
        </g>
      </g>
    </g>
  </g>
</svg>
