<svg xmlns="http://www.w3.org/2000/svg" xmlns:xlink="http://www.w3.org/1999/xlink" fill="none" version="1.1" width="24"
  height="24" viewBox="0 0 24 24">
  <g style="mix-blend-mode:passthrough">
    <g>
      <path
        d="M13.3677,4.187205L20.5386,7.67919C20.87,7.84056,20.8751,8.29935,20.5475,8.46774L11.2342,13.255C10.7149,13.52192,10.09532,13.52855,9.57014,13.27281L3.72269,10.425270000000001C3.01031,10.14654,2.21379,10.6556,2.21379,11.42239C2.21379,12.03889,2.57142,12.60247,3.13758,12.87818L9.00011,15.733C9.35798,15.3781,9.85627,15.158,10.40738,15.158C10.94273,15.158,11.4282,15.3657,11.7836,15.7029L19.0856,11.94953C19.0656,11.839780000000001,19.0552,11.72682,19.0552,11.61147C19.0552,10.550550000000001,19.9383,9.69051,21.0276,9.69051C22.1169,9.69051,23,10.550550000000001,23,11.61147C23,12.67243,22.1169,13.53247,21.0276,13.53247C20.495,13.53247,20.0116,13.32687,19.6567,12.99268L12.3506,16.7482C12.3698,16.855600000000003,12.3798,16.9662,12.3798,17.079C12.3798,18.1399,11.4967,19,10.40738,19C9.31806,19,8.43498,18.1399,8.43498,17.079C8.43498,16.9809,8.44253,16.8845,8.45712,16.790300000000002L2.50967,13.89411C1.584445,13.44355,1,12.52255,1,11.51506L1,10.95391C1,10.18662,1.436026,9.48235,2.13277,9.12426L11.7037,4.205012C12.2229,3.9380886999999998,12.8425,3.9314582,13.3677,4.187205ZM10.40738,17.8178C10.82635,17.8178,11.166,17.487099999999998,11.166,17.079C11.166,16.671,10.82635,16.3402,10.40738,16.3402C9.98841,16.3402,9.64877,16.671,9.64877,17.079C9.64877,17.487099999999998,9.98841,17.8178,10.40738,17.8178ZM21.7862,11.61147C21.7862,12.01955,21.4466,12.35034,21.0276,12.35034C20.6086,12.35034,20.269,12.01955,20.269,11.61147C20.269,11.20343,20.6086,10.87264,21.0276,10.87264C21.4466,10.87264,21.7862,11.20343,21.7862,11.61147Z"
        fill-rule="evenodd" fill="#FFFFFF" fill-opacity="1" />
    </g>
  </g>
</svg>
