<svg xmlns="http://www.w3.org/2000/svg" xmlns:xlink="http://www.w3.org/1999/xlink" fill="none" version="1.1" width="24"
  height="24" viewBox="0 0 24 24">
  <g style="mix-blend-mode:passthrough">
    <g>
      <path
        d="M12,2C6.5,2,2,6.5,2,12C2,16.4,4.9,20.2,8.8,21.5C9.3,21.6,9.5,21.3,9.5,21C9.5,20.8,9.5,20.1,9.5,19.3Q6.7,19.9,6.1,18Q5.7,16.8,5,16.5Q4.1,15.9,5.1,15.9Q6.1,16,6.6,16.9C7.5,18.5,9,18,9.5,17.8C9.6,17.2,9.9,16.7,10.1,16.5C7.9,16.3,5.5,15.4,5.5,11.6C5.5,10.5,5.9,9.6,6.5,8.9C6.6,8.5,6.2,7.5,6.8,6.2Q7.6,5.9,9.6,7.2C10.4,7,11.2,6.9,12.1,6.9C13,6.9,13.8,7,14.6,7.2Q16.5,5.9,17.4,6.2C17.9,7.5,17.6,8.6,17.5,8.8C18.1,9.5,18.5,10.4,18.5,11.5C18.5,15.3,16.2,16.2,13.9,16.4C14.3,16.7,14.6,17.3,14.6,18.3C14.6,19.6,14.6,20.7,14.6,21C14.6,21.3,14.8,21.6,15.3,21.5C19.3,20.2,22.1,16.4,22.1,12C22,6.5,17.5,2,12,2Z"
        fill="#FFFFFF" fill-opacity="1" />
    </g>
  </g>
</svg>
