<svg xmlns="http://www.w3.org/2000/svg" xmlns:xlink="http://www.w3.org/1999/xlink" fill="none" version="1.1" width="24"
  height="24" viewBox="0 0 24 24">
  <g style="mix-blend-mode:passthrough">
    <g style="mix-blend-mode:passthrough">
      <g>
        <g>
          <path
            d="M20.4037,5.88019L22,4.337806L22,4L16.4714,4L12.5312,13.909L8.049479999999999,4L2.252604,4L2.252604,4.337806L4.117179999999999,6.60555C4.29948,6.773149999999999,4.39323,7.019299999999999,4.36979,7.2654499999999995L4.36979,16.1767C4.42708,16.4988,4.3255300000000005,16.8262,4.10156,17.0592L2,19.6334L2,19.9658L7.95313,19.9658L7.95313,19.6281L5.85416,17.061799999999998C5.7417,16.947,5.657109999999999,16.8077,5.6069700000000005,16.654600000000002C5.556839999999999,16.5015,5.5425,16.338900000000002,5.56511,16.1794L5.56511,8.470040000000001L10.7917,19.9711L11.39841,19.9711L15.8932,8.470040000000001L15.8932,17.6327C15.8932,17.8736,15.8932,17.923299999999998,15.737,18.0831L14.1198,19.662100000000002L14.1198,20L21.9635,20L21.9635,19.662100000000002L20.4037,18.119799999999998C20.2683,18.0151,20.1979,17.8395,20.2265,17.6693L20.2265,6.3306000000000004C20.213,6.246449999999999,20.2224,6.1602,20.2536,6.08093C20.2847,6.00166,20.3365,5.93232,20.4037,5.88019Z"
            fill="#FFFFFF" fill-opacity="1" />
        </g>
      </g>
    </g>
  </g>
</svg>
