<svg xmlns="http://www.w3.org/2000/svg" xmlns:xlink="http://www.w3.org/1999/xlink" fill="none" version="1.1" width="24"
  height="24" viewBox="0 0 24 24">
  <g style="mix-blend-mode:passthrough">
    <g>
      <path
        d="M20.8412,7.23619C20.8549,7.42212,20.8549,7.60806,20.8549,7.794C20.8549,13.4656,16.5246,20,8.608699999999999,20C6.1706,20,3.9047,19.2956,2,18.073700000000002C2.3465,18.1141,2.67935,18.1268,3.0395000000000003,18.1268C5.0512999999999995,18.1268,6.9035,17.45,8.382950000000001,16.295099999999998C6.49085,16.2547,4.9043,15.0201,4.3583,13.3201C4.625,13.3594,4.8917,13.3859,5.170999999999999,13.3859C5.5573999999999995,13.3859,5.9437999999999995,13.3328,6.30395,13.2393C4.332050000000001,12.84088,2.8526,11.11431,2.8526,9.02969L2.8526,8.97656C3.4259,9.29531,4.0916,9.495059999999999,4.7982499999999995,9.52056C3.60388,8.733889999999999,2.882435,7.39049,2.8799,5.94844C2.8799,5.15156,3.09305,4.42056,3.4657999999999998,3.783063C5.66958,6.474349999999999,8.8904,8.10355,12.3404,8.27213C12.2713,7.9495,12.2354,7.62049,12.2333,7.29037C12.2333,4.92525,14.1527,3,16.5383,3C17.7773,3,18.8955,3.517438,19.682,4.35469C20.6446,4.17028,21.5688,3.819866,22.4141,3.31875C22.0899,4.31418,21.4169,5.1551,20.522,5.68281C21.3758,5.5860199999999995,22.2108,5.36226,23,5.01875C22.4088,5.87554,21.679,6.62521,20.8412,7.23619Z"
        fill-rule="evenodd" fill="#FFFFFF" fill-opacity="1" />
    </g>
  </g>
</svg>
